<?xml version="1.0" encoding="UTF-8"?>
<!DOCTYPE svg PUBLIC "-//W3C//DTD SVG 1.1//EN" "http://www.w3.org/Graphics/SVG/1.1/DTD/svg11.dtd">
<!-- Creator: CorelDRAW 2018 (64-Bit) -->
<svg xmlns="http://www.w3.org/2000/svg" xml:space="preserve" width="3307px" height="768px" version="1.1" style="shape-rendering:geometricPrecision; text-rendering:geometricPrecision; image-rendering:optimizeQuality; fill-rule:evenodd; clip-rule:evenodd"
viewBox="0 0 3083.6 715.84"
 xmlns:xlink="http://www.w3.org/1999/xlink">
 <defs>
  <style type="text/css">
   <![CDATA[
    .fil0 {fill:#F2501E;fill-rule:nonzero}
   ]]>
  </style>
 </defs>
 <g id="Layer_x0020_1">
  <metadata id="CorelCorpID_0Corel-Layer"/>
  <path class="fil0" d="M103.03 597.34l192.36 0 0 108.7 -295.39 0 0 -696.24 103.03 0 0 587.54zm574.74 -141.49c0,81.59 -16.66,145.25 -50.22,191.11 -33.44,45.86 -78.1,68.88 -133.75,68.88 -55.65,0 -100.07,-23.02 -133.39,-68.88 -33.19,-45.86 -49.85,-109.52 -49.85,-191.11l0 -194.88c0,-81.28 16.66,-145.09 49.85,-191.45 33.32,-46.34 77.61,-69.52 133.02,-69.52 55.4,0 100.06,23.18 133.75,69.52 33.81,46.36 50.59,110.17 50.59,191.45l0 194.88zm-102.29 -196.35c0,-49.78 -6.91,-87.32 -20.98,-112.78 -13.93,-25.29 -34.3,-38.02 -61.07,-38.02 -27.02,0 -47.26,12.57 -60.7,37.86 -13.46,25.14 -20.25,62.84 -20.25,112.94l0 196.35c0,50.42 6.92,88.29 20.61,113.42 13.7,25.3 33.93,37.87 60.71,37.87 26.52,0 46.77,-12.57 60.7,-37.87 14.07,-25.13 20.98,-63 20.98,-113.42l0 -196.35zm517.74 343.07c-14.31,30.03 -35.65,56.3 -64.04,79.15 -28.5,22.69 -64.41,34.12 -108.08,34.12 -56.39,0 -101.68,-21.87 -135.74,-65.46 -34.17,-43.74 -51.2,-105.75 -51.2,-186.38l0 -212.16c0,-79.98 16.53,-142 49.36,-185.9 32.94,-43.91 76.5,-65.94 130.67,-65.94 58.36,0 102.03,18.93 131.28,56.64 29.12,37.69 44.3,91.72 45.53,162.22l-0.74 2.78 -96.49 0c-0.74,-39.18 -7.28,-67.89 -19.75,-85.84 -12.33,-18.13 -31.33,-27.1 -56.87,-27.1 -25.05,0 -44.79,11.75 -58.98,35.09 -14.2,23.5 -21.35,59.08 -21.35,106.9l0 213.15c0,48.63 7.15,84.71 21.59,108.21 14.31,23.34 35.17,35.09 62.69,35.09 20.48,0 35.66,-3.6 45.4,-10.94 9.75,-7.35 17.77,-18.11 24.06,-32.32l0 -124.19 -69.46 0 0 -95.97 172.12 0 0 258.85zm432.23 -146.72c0,81.59 -16.66,145.25 -50.22,191.11 -33.43,45.86 -78.1,68.88 -133.75,68.88 -55.65,0 -100.07,-23.02 -133.39,-68.88 -33.19,-45.86 -49.85,-109.52 -49.85,-191.11l0 -194.88c0,-81.28 16.66,-145.09 49.85,-191.45 33.32,-46.34 77.62,-69.52 133.02,-69.52 55.4,0 100.07,23.18 133.76,69.52 33.8,46.36 50.58,110.17 50.58,191.45l0 194.88zm-102.29 -196.35c0,-49.78 -6.9,-87.32 -20.97,-112.78 -13.94,-25.29 -34.31,-38.02 -61.08,-38.02 -27.02,0 -47.25,12.57 -60.7,37.86 -13.46,25.14 -20.24,62.84 -20.24,112.94l0 196.35c0,50.42 6.91,88.29 20.6,113.42 13.7,25.3 33.93,37.87 60.71,37.87 26.53,0 46.77,-12.57 60.71,-37.87 14.07,-25.13 20.97,-63 20.97,-113.42l0 -196.35zm469.25 -141.01l-118.58 0 0 587.55 -102.65 0 0 -587.55 -117.84 0 0 -108.69 339.07 0 0 108.69zm217.29 189.65l2.1 0 87.85 -298.34 111.79 0 -150.41 448.49 0 247.75 -102.66 0 0 -256.24 -147.82 -440 112.41 0 86.74 298.34zm347.34 148.19l0 249.71 -103.03 0 0 -696.24 182.99 0c52.56,0 93.89,20.56 124.37,61.69 30.35,41.13 45.53,94.98 45.53,161.57 0,66.91 -15.3,120.94 -45.78,161.9 -30.48,40.97 -71.81,61.37 -124.12,61.37l-79.96 0zm0 -108.69l79.96 0c21.83,0 38.61,-10.77 50.21,-32.16 11.6,-21.38 17.4,-48.47 17.4,-81.43 0,-33.3 -5.8,-60.89 -17.27,-82.76 -11.35,-21.87 -28.26,-32.8 -50.34,-32.8l-79.96 0 0 229.15zm595.47 52.87l-176.81 0 0 196.83 207.9 0 0 108.7 -310.93 0 0 -696.24 310.19 0 0 108.69 -207.16 0 0 173.33 176.81 0 0 108.69z"/>
 </g>
</svg>
